<svg width="50" height="50" viewBox="0 0 50 50" fill="none" xmlns="http://www.w3.org/2000/svg">
<path d="M22.9167 35.4167H27.0834V22.9167H22.9167V35.4167ZM25 18.7501C25.5903 18.7501 26.0851 18.5504 26.4844 18.1511C26.8837 17.7518 27.0834 17.257 27.0834 16.6667C27.0834 16.0765 26.8837 15.5817 26.4844 15.1824C26.0851 14.7831 25.5903 14.5834 25 14.5834C24.4097 14.5834 23.915 14.7831 23.5156 15.1824C23.1163 15.5817 22.9167 16.0765 22.9167 16.6667C22.9167 17.257 23.1163 17.7518 23.5156 18.1511C23.915 18.5504 24.4097 18.7501 25 18.7501ZM25 45.8334C22.1181 45.8334 19.4097 45.2865 16.875 44.1928C14.3403 43.099 12.1354 41.6147 10.2604 39.7397C8.38544 37.8647 6.90106 35.6598 5.80731 33.1251C4.71356 30.5904 4.16669 27.882 4.16669 25.0001C4.16669 22.1181 4.71356 19.4098 5.80731 16.8751C6.90106 14.3404 8.38544 12.1355 10.2604 10.2605C12.1354 8.3855 14.3403 6.90112 16.875 5.80737C19.4097 4.71362 22.1181 4.16675 25 4.16675C27.882 4.16675 30.5903 4.71362 33.125 5.80737C35.6597 6.90112 37.8646 8.3855 39.7396 10.2605C41.6146 12.1355 43.099 14.3404 44.1927 16.8751C45.2865 19.4098 45.8334 22.1181 45.8334 25.0001C45.8334 27.882 45.2865 30.5904 44.1927 33.1251C43.099 35.6598 41.6146 37.8647 39.7396 39.7397C37.8646 41.6147 35.6597 43.099 33.125 44.1928C30.5903 45.2865 27.882 45.8334 25 45.8334ZM25 41.6667C29.6528 41.6667 33.5938 40.0522 36.8229 36.823C40.0521 33.5938 41.6667 29.6529 41.6667 25.0001C41.6667 20.3473 40.0521 16.4063 36.8229 13.1772C33.5938 9.948 29.6528 8.33342 25 8.33342C20.3472 8.33342 16.4063 9.948 13.1771 13.1772C9.94794 16.4063 8.33335 20.3473 8.33335 25.0001C8.33335 29.6529 9.94794 33.5938 13.1771 36.823C16.4063 40.0522 20.3472 41.6667 25 41.6667Z" fill="black"/>
</svg>
