<svg width="884" height="837" viewBox="0 0 884 837" fill="none" xmlns="http://www.w3.org/2000/svg">
<g clip-path="url(#clip0_92_6)">
<mask id="mask0_92_6" style="mask-type:luminance" maskUnits="userSpaceOnUse" x="2" y="1" width="845" height="837">
<path d="M2.28651 1.40698H846.536V837.071H2.28651V1.40698Z" fill="white"/>
</mask>
<g mask="url(#mask0_92_6)">
<path d="M709.188 755.137C706.824 754.835 704.124 754.141 703.1 751.991C702.297 750.342 702.778 748.37 703.348 746.611C709.298 728.268 723.554 712.782 731.208 695.504C733.983 716.424 736.752 737.343 739.535 758.256C729.786 755.35 719.294 756.47 709.188 755.137ZM835.557 168.03C832.788 159.112 830.02 150.202 827.251 141.284C835.667 115.198 842.043 88.3355 838.457 61.4112C837.673 55.4959 836.32 49.457 832.809 44.6685C829.291 39.8731 823.115 36.6028 817.337 38.025C813.805 38.8975 810.913 41.3295 808.178 43.7066C788.48 60.7722 769.82 79.0058 752.286 98.2767C738.724 90.108 723.877 84.0485 708.48 80.3798C695.763 77.3432 682.695 75.9348 669.641 76.3126C666.659 71.2493 663.21 66.4195 659.624 61.8028C649.806 49.1272 638.614 37.2967 631.248 23.0548C628.473 17.7098 626.206 11.9525 622.173 7.48003C618.126 2.98692 611.681 0.00524855 606.013 2.08692C602.035 3.53654 599.266 7.14339 597.095 10.7846C585.944 29.554 585.216 52.5486 585.573 74.389C585.91 94.924 586.92 115.411 588.624 135.87C580.262 147.57 572.43 159.614 566.109 172.489C557.356 190.331 551.544 210.062 552.024 229.841C552.079 232.362 552.237 234.891 552.505 237.405C553.605 247.848 556.786 258.222 561.863 267.456C559.239 269.819 556.374 272.038 553.412 274.223C540.784 283.367 525.923 291.371 516.827 303.696C509.943 313.019 506.672 324.513 500.757 334.488C488.843 354.611 467.709 366.634 446.802 377.66C444.054 379.117 441.299 380.553 438.565 381.989C396.139 404.351 355.047 430.808 323.401 466.836C299.698 493.829 282.611 526.009 272.456 560.353C255.637 616.929 257.554 679.379 279.237 734.128C264.569 733.098 249.797 732.191 234.998 731.607C212.799 730.72 190.601 730.521 168.656 731.717C161.373 732.088 154.125 732.637 146.938 733.345C139.443 734.073 131.981 735.001 124.575 736.134C94.8118 740.737 65.9213 748.775 38.6796 762.028C36.8177 762.914 34.9696 763.835 33.1214 764.797C23.2828 769.874 13.4648 775.913 7.39128 785.167C1.31774 794.4 0.0192087 807.612 7.04775 816.151C11.5067 821.565 17.7452 823.874 24.65 824.423C33.4787 825.151 43.4066 822.987 52.1253 820.789C71.5001 815.883 91.2598 812.545 111.171 810.786C121.559 809.845 131.981 809.35 142.404 809.295C150.113 809.226 157.801 809.419 165.496 809.831C176.949 810.449 188.347 811.59 199.697 813.259C225.448 817.038 251.144 823.503 277.121 821.991C291.226 821.174 305.696 817.464 317.932 810.559C326.829 815.032 335.479 820.308 344.858 823.592C354.071 826.821 363.841 828.085 373.535 829.328C382.982 830.538 392.45 831.74 401.897 832.949C417.987 835.01 434.113 837.071 450.32 837.071C464.35 837.071 478.366 835.505 492.038 832.454C501.684 830.283 511.681 827.054 518.27 819.669C520.235 817.429 521.767 814.716 522.722 811.837C547.517 815.657 573.57 811.624 595.927 800.261C605.869 815.348 618.14 831.726 636.058 833.643C640.661 834.138 645.47 833.554 649.503 831.314C658.682 826.258 661.596 814.324 661.046 803.861C661.025 803.668 661.025 803.49 661.012 803.297C664.474 803.936 667.971 803.613 670.94 801.751C674.045 799.793 676.12 796.441 679.39 794.806C682.193 793.425 685.484 793.473 688.61 793.583C695.941 793.796 703.293 794.023 710.63 794.256C719.507 794.524 728.652 794.751 736.986 791.68C738.559 791.096 740.126 790.347 741.603 789.495C746.893 802.281 753.606 814.592 765.107 821.833C779.549 830.909 803.472 825.955 806.667 809.206C807.958 802.39 805.636 795.479 803.788 788.787C794.588 755.384 797.378 720.01 800.236 685.487C801.534 669.651 802.847 653.829 804.159 638.007C804.75 630.992 805.313 623.992 805.904 616.998C808.013 591.516 810.15 565.945 815.653 540.993C820.325 519.86 827.443 498.995 827.89 477.354C828.206 462.343 825.279 447.338 826.626 432.389C827.904 418.044 833.091 404.241 834.424 389.896C835.846 374.48 832.775 359.118 829.896 343.797C827.086 328.806 824.461 313.823 826.378 298.811C828.652 280.99 837.179 264.556 842.325 247.367C843.836 242.324 845.059 237.213 845.732 231.978C848.556 210.398 842.022 188.805 835.557 168.03Z" fill="#996F38"/>
</g>
<mask id="mask1_92_6" style="mask-type:luminance" maskUnits="userSpaceOnUse" x="99" y="223" width="745" height="615">
<path d="M99.0235 223.012H843.019V837.071H99.0235V223.012Z" fill="white"/>
</mask>
<g mask="url(#mask1_92_6)">
<path d="M124.575 736.134C123.62 737.824 122.479 739.439 121.38 740.93C114.736 749.93 109.02 759.596 104.334 769.75C101.847 775.13 99.6075 780.901 100.123 786.795C100.851 795.266 106.98 802.143 110.71 809.776C110.868 810.113 111.026 810.429 111.171 810.786C121.559 809.845 131.981 809.35 142.404 809.295C139.669 801.181 136.853 793.047 136.708 784.597C136.42 767.119 147.591 750.431 146.938 733.345C139.443 734.073 131.981 735.001 124.575 736.134ZM739.535 758.256C736.752 737.344 733.984 716.424 731.208 695.504C723.554 712.783 709.298 728.268 703.348 746.611C702.778 748.37 702.297 750.342 703.101 751.991C704.124 754.141 706.824 754.835 709.188 755.137C719.294 756.47 729.786 755.35 739.535 758.256ZM842.325 247.367C837.179 264.557 828.652 280.99 826.378 298.818C824.461 313.823 827.086 328.807 829.896 343.797C826.949 351.004 822.469 357.84 817.378 363.522C804.235 378.142 786.99 389.258 776.691 406C767.312 421.252 764.667 440.489 769.607 457.712C773.565 471.542 782.002 483.62 787.491 496.921C794.801 514.646 796.739 534.549 792.974 553.353C789.49 570.81 781.218 587.559 781.789 605.346C782.228 619.375 791.71 634.4 804.159 638.007C802.847 653.829 801.534 669.651 800.236 685.487C797.378 720.01 794.588 755.385 803.788 788.788C805.636 795.479 807.958 802.391 806.667 809.206C803.472 825.955 779.549 830.909 765.107 821.833C753.606 814.592 746.893 802.281 741.603 789.495C740.126 790.347 738.559 791.096 736.986 791.68C728.652 794.751 719.507 794.524 710.631 794.256C703.293 794.023 695.941 793.796 688.611 793.583C685.484 793.473 682.193 793.425 679.39 794.806C676.12 796.441 674.045 799.794 670.94 801.752C667.971 803.614 664.474 803.936 661.012 803.297C661.025 803.49 661.025 803.668 661.046 803.861C661.596 814.324 658.683 826.258 649.504 831.314C645.471 833.554 640.661 834.138 636.058 833.643C618.14 831.726 605.869 815.348 595.927 800.261C573.571 811.624 547.517 815.657 522.722 811.837C521.767 814.716 520.235 817.43 518.27 819.669C511.681 827.055 501.684 830.284 492.038 832.455C478.366 835.505 464.35 837.071 450.32 837.071C434.113 837.071 417.988 835.01 401.897 832.949C392.45 831.74 382.982 830.538 373.535 829.329C363.841 828.085 354.071 826.821 344.858 823.592C335.479 820.308 326.829 815.032 317.932 810.559C305.696 817.464 291.226 821.174 277.121 821.991C251.144 823.503 225.448 817.038 199.697 813.259C188.347 811.59 176.949 810.449 165.496 809.831C166.822 804.342 167.035 798.591 166.045 793.047C169.824 794.366 173.521 796.352 177.286 797.788C183.799 800.261 192.662 800.295 196.076 794.222C197.849 791.027 197.567 786.974 199.484 783.848C204.259 776.057 216.743 780.564 225.022 776.62C232.586 773.021 234.716 763.361 235.266 754.993C235.761 747.195 235.678 739.384 234.998 731.607C249.797 732.191 264.569 733.098 279.237 734.128C257.554 679.38 255.637 616.929 272.456 560.353C282.892 571.483 296.036 580.291 309.481 587.8C326.726 597.445 345.868 605.6 365.559 604.068C385.27 602.543 405.16 588.583 407.524 568.982C408.822 558.258 404.934 547.671 403.12 537.015C401.306 526.366 402.323 513.842 410.794 507.13C417.005 502.211 424.947 501.943 433.096 502.692C437.802 503.118 442.577 503.901 447.125 504.306C475.274 506.862 504.274 491.857 518.462 467.427C524.288 457.431 532.602 443.862 543.381 448.032C550.087 450.622 552.437 459.045 558.132 463.428C566.535 469.873 579.692 464.995 585.381 456.057C591.056 447.125 591.18 435.831 590.493 425.264C588.789 398.704 583.141 372.405 573.818 347.473C564.866 323.585 552.327 299.134 553.412 274.223C556.374 272.038 559.239 269.819 561.863 267.456C556.786 258.222 553.605 247.848 552.505 237.405C552.238 234.891 552.08 232.363 552.025 229.841C559.417 227.231 566.466 225.513 571.681 230.645C577.439 236.327 575.164 245.966 577.459 253.729C580.977 265.697 595.57 271.447 607.875 269.386C620.187 267.332 630.644 259.555 640.586 252.005C650.761 244.262 661.541 235.578 667.422 224.62C689.813 228.193 710.967 239.666 725.952 256.731C735.935 268.074 746.034 283.134 761.115 282.515C777.33 281.856 786.419 262.626 785.925 246.392C785.835 243.912 785.643 241.335 786.406 238.951C788.034 233.95 793.757 231.174 799.047 231.284C804.324 231.387 809.257 233.737 814.004 236.079C823.094 240.586 832.507 245.382 842.325 247.367Z" fill="#F2EFF1"/>
</g>
<path d="M38.6797 762.028C39.2637 773.817 42.1974 786.548 38.714 797.685C36.2475 805.62 30.6686 812.153 26.8005 819.491C25.9829 821.05 25.2341 822.706 24.6501 824.423C33.4787 825.152 43.4066 822.988 52.1253 820.789C71.5002 815.884 91.2598 812.545 111.171 810.786C111.026 810.429 110.868 810.113 110.71 809.776C106.98 802.143 100.851 795.266 100.123 786.795C99.6075 780.901 101.847 775.13 104.334 769.75C109.02 759.596 114.736 749.93 121.38 740.93C122.479 739.439 123.62 737.824 124.575 736.134C94.8118 740.737 65.9213 748.776 38.6797 762.028ZM146.938 733.345C147.591 750.431 136.42 767.119 136.708 784.597C136.853 793.047 139.669 801.182 142.404 809.295C150.113 809.227 157.801 809.419 165.496 809.831C166.822 804.342 167.035 798.591 166.045 793.047C165.688 791.027 165.173 789.014 164.479 787.063C163.469 784.205 162.136 781.402 161.909 778.379C161.106 767.957 173.15 761.156 176.221 751.139C178.419 743.987 174.908 735.674 168.656 731.717C161.373 732.088 154.125 732.637 146.938 733.345ZM446.802 377.661C444.054 379.117 441.299 380.553 438.565 381.989C396.139 404.351 355.047 430.809 323.401 466.836C299.698 493.829 282.611 526.009 272.456 560.353C282.892 571.483 296.036 580.291 309.481 587.8C326.726 597.446 345.868 605.6 365.559 604.068C385.27 602.543 405.16 588.583 407.524 568.982C408.822 558.258 404.934 547.671 403.12 537.015C401.306 526.366 402.323 513.842 410.794 507.13C417.005 502.211 424.947 501.943 433.096 502.692C432.278 496.55 434.841 489.199 438.675 483.943C444.728 475.644 453.378 468.244 454.552 458.028C455.418 450.43 451.852 443.113 449.187 435.92C442.364 417.384 441.622 396.712 446.802 377.661ZM669.641 76.3129C666.659 71.2495 663.21 66.4198 659.624 61.803C649.806 49.1275 638.614 37.297 631.249 23.055C628.473 17.71 626.206 11.9528 622.173 7.48028C618.126 2.98716 611.681 0.00549269 606.013 2.08717C602.035 3.53678 599.266 7.14364 597.095 10.7848C585.944 29.5543 585.216 52.5488 585.573 74.3892C585.91 94.9243 586.92 115.411 588.624 135.871C580.262 147.571 572.43 159.614 566.109 172.489C557.356 190.331 551.544 210.062 552.025 229.841C559.417 227.231 566.466 225.513 571.681 230.645C577.439 236.327 575.164 245.966 577.459 253.729C580.977 265.697 595.57 271.447 607.875 269.386C620.187 267.332 630.644 259.555 640.586 252.005C650.761 244.262 661.541 235.578 667.422 224.62C669.428 220.91 670.864 216.953 671.524 212.673C673.159 202.216 669.785 191.595 670.369 181.008C671.455 161.284 685.752 145.228 695.144 127.826C702.991 113.247 707.539 96.9098 708.48 80.38C695.763 77.3434 682.695 75.935 669.641 76.3129ZM829.896 343.797C832.775 359.118 835.846 374.48 834.424 389.897C833.091 404.242 827.904 418.044 826.626 432.389C825.279 447.338 828.206 462.343 827.89 477.354C827.443 498.995 820.325 519.86 815.653 540.993C810.15 565.946 808.013 591.517 805.904 616.998C805.313 623.992 804.75 630.993 804.159 638.007C791.71 634.4 782.228 619.375 781.789 605.346C781.218 587.559 789.49 570.81 792.974 553.353C796.739 534.549 794.801 514.646 787.491 496.921C782.002 483.62 773.565 471.542 769.607 457.712C764.667 440.489 767.312 421.252 776.691 406C786.99 389.258 804.235 378.142 817.378 363.522C822.469 357.84 826.949 351.004 829.896 343.797Z" fill="#FAC264"/>
<path d="M33.1214 764.797C23.2828 769.874 13.4649 775.913 7.39131 785.167C1.31777 794.401 0.0192382 807.612 7.04778 816.152C11.5068 821.565 17.7452 823.874 24.6501 824.423C25.2341 822.706 25.9829 821.05 26.8005 819.491C30.6686 812.153 36.2475 805.62 38.714 797.685C42.1974 786.548 39.2637 773.818 38.6797 762.028C36.8178 762.914 34.9696 763.835 33.1214 764.797ZM168.656 731.717C174.908 735.674 178.419 743.987 176.221 751.139C173.15 761.156 161.106 767.957 161.909 778.379C162.136 781.402 163.469 784.205 164.479 787.063C165.173 789.014 165.688 791.027 166.045 793.047C169.824 794.366 173.521 796.352 177.286 797.788C183.799 800.261 192.662 800.295 196.076 794.222C197.849 791.027 197.567 786.974 199.484 783.848C204.259 776.057 216.743 780.564 225.022 776.621C232.586 773.021 234.716 763.361 235.266 754.993C235.761 747.195 235.678 739.384 234.998 731.607C212.799 730.721 190.601 730.521 168.656 731.717ZM573.818 347.473C564.866 323.585 552.327 299.134 553.412 274.223C540.784 283.367 525.923 291.371 516.827 303.696C509.943 313.019 506.672 324.513 500.757 334.488C488.843 354.611 467.71 366.634 446.802 377.661C441.622 396.712 442.364 417.384 449.187 435.92C451.852 443.113 455.418 450.43 454.552 458.028C453.378 468.244 444.728 475.644 438.675 483.943C434.841 489.199 432.278 496.55 433.096 502.692C437.802 503.118 442.577 503.901 447.125 504.306C475.274 506.862 504.274 491.857 518.462 467.427C524.288 457.431 532.602 443.862 543.381 448.032C550.087 450.622 552.437 459.045 558.132 463.428C566.535 469.873 579.692 464.995 585.381 456.057C591.056 447.125 591.18 435.831 590.493 425.264C588.789 398.704 583.141 372.405 573.818 347.473ZM835.557 168.03C842.022 188.806 848.556 210.399 845.733 231.978C845.059 237.213 843.836 242.325 842.325 247.367C832.507 245.382 823.094 240.586 814.004 236.079C809.257 233.737 804.324 231.387 799.047 231.284C793.757 231.174 788.034 233.95 786.406 238.951C785.643 241.335 785.835 243.912 785.925 246.392C786.419 262.626 777.33 281.856 761.115 282.515C746.034 283.134 735.935 268.074 725.952 256.731C710.967 239.666 689.813 228.192 667.422 224.62C669.428 220.91 670.864 216.953 671.524 212.673C673.159 202.216 669.785 191.595 670.369 181.008C671.455 161.284 685.752 145.228 695.144 127.826C702.991 113.247 707.539 96.9097 708.48 80.38C723.877 84.0487 738.724 90.1082 752.287 98.2769C769.82 79.006 788.48 60.7724 808.178 43.7068C810.913 41.3297 813.805 38.8977 817.337 38.0252C823.115 36.603 829.291 39.8733 832.809 44.6687C836.32 49.4572 837.673 55.4961 838.45 61.4114C842.043 88.3357 835.667 115.198 827.251 141.284C830.02 150.202 832.788 159.113 835.557 168.03Z" fill="#996F38"/>
<path d="M819.329 126.493C823.445 114.614 826.186 102.289 827.478 89.7922C827.855 86.1304 828.103 82.3655 827.072 78.848C826.021 75.3167 823.445 72.0328 819.879 71.1259C813.895 69.6351 808.563 74.9595 804.715 79.7755C797.859 88.3151 791.002 96.8205 784.145 105.346C780.524 109.84 781.981 116.51 787.134 119.121C793.455 122.302 799.439 126.156 804.963 130.594C809.916 134.552 817.254 132.497 819.329 126.493ZM631.936 94.5258C625.917 98.222 620.221 102.433 614.91 107.064C609.263 112.004 600.489 108.417 599.871 100.943C598.717 86.6663 598.552 72.2938 599.404 57.9832C599.747 52.5489 601.231 45.8573 606.528 44.5932C611.853 43.3153 616.223 48.6809 619.012 53.387C624.694 62.9916 630.094 72.7747 635.151 82.7228C637.281 86.893 635.934 92.0594 631.936 94.5258Z" fill="#F68C64"/>
<path d="M770.28 156.955C770.308 164.43 759.446 162.726 746.062 162.774C732.671 162.822 721.823 164.616 721.795 157.141C721.768 149.659 732.602 143.558 745.986 143.503C759.377 143.455 770.253 149.474 770.28 156.955Z" fill="#FAC264"/>
<path d="M646.137 157.045C646.137 164.526 635.282 162.774 621.891 162.774C608.5 162.774 597.652 164.526 597.652 157.045C597.652 149.57 608.5 143.503 621.891 143.503C635.282 143.503 646.137 149.57 646.137 157.045Z" fill="#996F38"/>
<path d="M788.068 297.657C793.468 294.256 788.68 287.75 783.678 290.856C749.215 312.263 711.05 334.777 668.803 328.697C648.329 325.749 629.339 316.811 612.396 305.214C603.251 298.956 594.78 291.866 586.48 284.535C586.343 284.411 586.199 284.281 586.061 284.15C590.953 279.815 595.968 275.618 601.101 271.592C609.819 264.756 620.015 258.978 628.026 251.352C629.627 249.834 627.243 248.24 625.718 248.776C614.203 252.863 603.492 261.286 593.893 268.699C589.462 272.121 585.168 275.707 580.97 279.41C575.714 274.367 570.486 269.16 564.467 265.223C563.601 264.66 561.011 265.278 561.87 266.693C565.614 272.904 570.905 278.448 576.264 283.69C573.11 286.61 569.991 289.578 566.968 292.635C549.318 310.45 534.175 330.435 521.767 352.214C519.733 355.779 526.322 356.871 528.088 353.965C540.86 332.943 555.989 313.362 573.426 295.995C575.982 293.453 578.593 290.972 581.245 288.52C581.904 289.159 582.564 289.798 583.203 290.423C591.564 298.626 600.572 306.224 610.177 312.916C627.071 324.698 646.645 333.389 667.099 336.419C711.531 342.987 751.84 320.473 788.068 297.657ZM723.382 256.944C721.314 257.405 722.173 260.16 724.159 259.857C748.954 255.996 773.571 263.265 794.671 276.236C815.612 289.118 832.204 306.994 851.256 322.259C853.043 323.688 856.725 321.421 854.946 319.291C823.864 282.007 774.561 245.499 723.382 256.944ZM880.793 274.477C839.796 236.224 779.205 225.012 726.357 242.345C722.716 243.547 725.32 247.484 728.515 246.563C779.082 231.957 834.664 245.409 875.07 278.531C877.839 280.805 884.049 277.521 880.793 274.477ZM461.76 298.42C507.483 261.644 563.711 242.05 622.564 245.993C626.432 246.247 627.786 241.067 623.485 240.676C563.931 235.241 501.76 254.602 457.452 295.129C454.848 297.513 459.554 300.192 461.76 298.42ZM617.92 805.613C617.425 805.372 616.491 805.599 616.36 806.217C615.817 808.801 616.923 811.693 616.614 814.407C616.312 817.162 614.285 819.896 615.048 822.562C615.343 823.606 617.123 823.86 617.947 823.51C624.014 820.94 623.76 808.443 617.92 805.613ZM765.979 801.017C768.494 808.375 767.512 815.08 767.271 822.617C767.202 824.884 771.249 824.65 772.012 823.056C775.557 815.65 773.592 806.691 769.909 799.725C768.92 797.856 765.217 798.77 765.979 801.017ZM790.088 790.725C788.618 789.372 785.011 790.78 786.667 792.772C790.026 796.798 792.266 801.291 793.503 806.389C794.451 810.291 794.101 814.654 795.846 818.295C796.574 819.807 799.157 819.676 799.94 818.281C804.97 809.261 796.595 796.702 790.088 790.725ZM740.38 756.559C740.332 755.749 738.772 755.639 738.655 756.443C737.061 767.353 736.045 782.756 742.455 792.339C743.609 794.064 747.429 793.817 747.195 791.24C746.68 785.407 743.973 779.815 742.737 774.051C741.514 768.294 740.751 762.42 740.38 756.559ZM639.438 808.945C643.176 815.636 643.293 822.349 642.647 829.81C642.447 832.097 646.247 832.805 647.099 830.758C650.369 822.946 648.459 814.331 643.966 807.365C642.674 805.359 638.092 806.533 639.438 808.945ZM481.258 807.055C478.654 806.547 476.84 810.14 479.719 811.185C488.349 814.297 493.062 821.49 496.806 829.411C498.146 832.255 503.567 830.771 503.23 827.625C502.028 816.502 491.523 809.075 481.258 807.055ZM723.815 223.411C728.796 215.833 733.372 208.441 741.507 203.824C751.222 198.307 761.225 199.399 771.696 201.371C773.832 201.777 776.45 199.379 774.004 197.771C754.361 184.924 724.22 200.918 719.603 222.786C719.081 225.266 722.915 224.778 723.815 223.411ZM629.187 266.418C627.607 271.791 633.701 275.762 638.16 277.479C643.911 279.698 650.163 279.307 655.879 277.156C662.983 274.477 668.617 269.393 672.843 263.203C676.883 270.108 683.19 275.734 690.713 278.146C700.105 281.148 713.365 279.444 717.858 269.544C718.408 268.335 716.814 267.463 715.818 268.129C707.065 273.996 697.075 274.161 688.665 267.469C683.945 263.718 680.895 258.799 677.893 253.812C678.154 253.186 678.401 252.561 678.641 251.929L684.351 249.167C697.59 242.764 693.035 222.861 678.325 222.861H665.368C650.665 222.861 646.103 242.764 659.342 249.167L665.821 252.3C666.803 252.774 667.827 253.125 668.872 253.358C666.041 258.628 662.846 263.65 658.085 267.339C652.767 271.468 646.625 273.22 640.139 271.131C636.47 269.95 633.99 267.14 630.362 265.986C629.95 265.855 629.339 265.917 629.187 266.418ZM611.647 235.001C619.527 235.001 625.917 223.734 625.917 209.828C625.917 204.016 624.79 198.685 622.921 194.425C626.529 196.631 629.105 199.75 632.238 202.69C633.488 203.865 636.889 203.474 636.559 201.213C634.423 186.477 612.107 179.249 600.874 187.913C598.882 189.445 599.782 191.403 601.582 191.993C598.991 196.555 597.384 202.855 597.384 209.828C597.384 223.734 603.773 235.001 611.647 235.001ZM466.164 760.95C437.733 752.032 380.447 753.042 376.277 713.882C376.105 712.281 373.418 712.563 373.315 714.095C371.021 748.734 415.129 757.219 440.427 763.203C456.38 766.975 472.615 771.275 486.013 781.182C500.145 791.625 508.885 807.062 514.917 823.276C516.346 827.11 523.1 826.072 522.667 821.778C519.616 791.137 494.079 769.695 466.164 760.95ZM700.153 752.19C694.492 760.359 690.294 769.393 684.296 777.376C677.961 785.806 670.459 793.068 662.42 799.835C662.077 781.017 660.125 762.172 659.631 743.348C659.04 720.786 658.923 698.204 659.28 675.635C659.596 656.213 659.569 636.544 661.259 617.184C661.898 609.839 662.963 602.406 665.182 595.364C668.095 586.137 673.64 579.631 678.841 571.73C679.418 570.844 678.016 570.246 677.357 570.652C664.474 578.552 658.284 595.185 655.914 609.407C652.595 629.282 652.953 650.071 652.52 670.167C652.059 691.54 652.025 712.92 652.403 734.293C652.808 757.542 652.272 781.464 654.979 804.562C655.309 807.385 659.802 807.53 661.671 805.771C662.001 805.73 662.31 805.64 662.571 805.482C680.38 794.778 701.63 774.711 705.196 753.193C705.691 750.253 701.369 750.445 700.153 752.19ZM737.81 605.566C746.989 585.45 769.765 572.191 771.345 548.708C771.455 547.094 768.535 547.307 768.144 548.619C760.717 573.716 734.616 586.728 726.673 611.687C722.448 624.954 722.365 639.024 722.819 652.806C723.073 660.487 723.451 668.161 723.767 675.835C724.117 684.017 723.616 692.687 725.423 700.691C726.282 704.531 733.001 703.645 733.454 699.97C735.44 683.776 732.19 666.209 731.661 649.872C731.18 634.957 731.503 619.389 737.81 605.566ZM562.214 635.726C559.987 608.987 560.214 583.279 548.301 558.601C541.794 545.122 534.34 532.44 530.039 517.992C525.965 504.32 524.137 490.188 524.041 475.939C524.027 474.696 521.595 474.641 521.437 475.822C518.091 501.888 523.725 526.449 535.151 549.883C541.746 563.404 547.875 576.361 550.293 591.365C552.567 605.525 552.65 619.945 553.742 634.222C558.091 690.942 571.118 748.968 594.347 801.058C595.975 804.713 604.241 802.15 602.688 798.255C581.74 745.67 566.927 692.344 562.214 635.726ZM310.196 793.549C311.254 796.194 307.159 797.513 305.517 795.836C289.261 779.217 280 748.989 281.869 726.124C282.075 723.644 286.335 723.885 286.87 726.049C289.777 737.756 291.824 749.607 295.72 761.066C299.581 772.416 305.764 782.501 310.196 793.549Z" fill="#3E393A"/>
</g>
<defs>
<clipPath id="clip0_92_6">
<rect width="884" height="837" fill="white"/>
</clipPath>
</defs>
</svg>
