<svg width="170" height="170" viewBox="0 0 170 170" fill="none" xmlns="http://www.w3.org/2000/svg">
<path d="M61.9792 132.404C62.8782 132.404 63.6251 132.106 64.22 131.512C64.8147 130.917 65.1121 130.17 65.1121 129.271V86.4985C68.454 85.8264 71.242 84.2803 73.4759 81.8601C75.7099 79.44 76.8269 76.4727 76.8269 72.9583V47.4038C76.8269 46.641 76.5636 45.9963 76.0369 45.4695C75.5102 44.9429 74.8654 44.6795 74.1026 44.6795C73.3398 44.6795 72.695 44.9429 72.1682 45.4695C71.6415 45.9963 71.3782 46.641 71.3782 47.4038V70.0159H64.7036V47.4038C64.7036 46.641 64.4402 45.9963 63.9134 45.4695C63.3868 44.9429 62.742 44.6795 61.9792 44.6795C61.2163 44.6795 60.5715 44.9429 60.0449 45.4695C59.5181 45.9963 59.2547 46.641 59.2547 47.4038V70.0159H52.5801V47.4038C52.5801 46.641 52.3168 45.9963 51.7901 45.4695C51.2634 44.9429 50.6186 44.6795 49.8557 44.6795C49.0929 44.6795 48.4482 44.9429 47.9214 45.4695C47.3948 45.9963 47.1314 46.641 47.1314 47.4038V72.9583C47.1314 76.4727 48.2484 79.44 50.4824 81.8601C52.7163 84.2803 55.5043 85.8264 58.8462 86.4985V129.271C58.8462 130.17 59.1436 130.917 59.7384 131.512C60.3332 132.106 61.0802 132.404 61.9792 132.404ZM104.479 132.404C105.378 132.404 106.125 132.106 106.72 131.512C107.315 130.917 107.612 130.17 107.612 129.271V88.242C111.417 86.8072 114.434 84.16 116.664 80.3006C118.893 76.441 120.008 71.8277 120.008 66.4608C120.008 60.1857 118.53 54.9867 115.574 50.8638C112.618 46.741 108.92 44.6795 104.479 44.6795C100.039 44.6795 96.3402 46.741 93.3842 50.8638C90.4283 54.9867 88.9504 60.1857 88.9504 66.4608C88.9504 71.8277 90.0651 76.441 92.2944 80.3006C94.5239 84.16 97.5412 86.8072 101.346 88.242V129.271C101.346 130.17 101.644 130.917 102.238 131.512C102.833 132.106 103.58 132.404 104.479 132.404ZM32.6922 148.75C29.4321 148.75 26.7101 147.658 24.526 145.474C22.342 143.29 21.25 140.568 21.25 137.308V32.6922C21.25 29.4321 22.342 26.7101 24.526 24.526C26.7101 22.342 29.4321 21.25 32.6922 21.25H137.308C140.568 21.25 143.29 22.342 145.474 24.526C147.658 26.7101 148.75 29.4321 148.75 32.6922V137.308C148.75 140.568 147.658 143.29 145.474 145.474C143.29 147.658 140.568 148.75 137.308 148.75H32.6922ZM32.6922 141.667H137.308C138.397 141.667 139.396 141.213 140.305 140.305C141.213 139.396 141.667 138.397 141.667 137.308V32.6922C141.667 31.6026 141.213 30.6037 140.305 29.6955C139.396 28.7874 138.397 28.3333 137.308 28.3333H32.6922C31.6026 28.3333 30.6037 28.7874 29.6955 29.6955C28.7874 30.6037 28.3333 31.6026 28.3333 32.6922V137.308C28.3333 138.397 28.7874 139.396 29.6955 140.305C30.6037 141.213 31.6026 141.667 32.6922 141.667Z" fill="#F7EBED"/>
</svg>
