<svg width="50" height="50" viewBox="0 0 50 50" fill="none" xmlns="http://www.w3.org/2000/svg">
<path d="M18.75 27.0834H22.9166V21.3542H27.0833V27.0834H31.25V17.1876L25 13.0209L18.75 17.1876V27.0834ZM25 40.3126C29.2361 36.4237 32.3785 32.8907 34.4271 29.7136C36.4757 26.5365 37.5 23.7154 37.5 21.2501C37.5 17.4654 36.2934 14.3664 33.8802 11.9532C31.467 9.54001 28.5069 8.33342 25 8.33342C21.493 8.33342 18.533 9.54001 16.1198 11.9532C13.7066 14.3664 12.5 17.4654 12.5 21.2501C12.5 23.7154 13.5243 26.5365 15.5729 29.7136C17.6215 32.8907 20.7639 36.4237 25 40.3126ZM25 45.8334C19.4097 41.0765 15.2344 36.6581 12.4739 32.5782C9.71352 28.4983 8.33331 24.7223 8.33331 21.2501C8.33331 16.0417 10.0087 11.8924 13.3594 8.80217C16.71 5.71189 20.5903 4.16675 25 4.16675C29.4097 4.16675 33.2899 5.71189 36.6406 8.80217C39.9913 11.8924 41.6666 16.0417 41.6666 21.2501C41.6666 24.7223 40.2864 28.4983 37.526 32.5782C34.7656 36.6581 30.5903 41.0765 25 45.8334Z" fill="black"/>
</svg>
