<svg width="50" height="50" viewBox="0 0 50 50" fill="none" xmlns="http://www.w3.org/2000/svg">
<path d="M11.4375 2C10.3867 2 9.50391 2.76172 9.28125 3.71875V3.75C9.28125 3.75 3.40625 30.7148 2.25 36.0938V36.125C2.07813 36.9844 2.25 37.8164 2.75 38.3438C3.25 38.8711 3.88282 39 4.40625 39H12.9688C12.6992 40.2188 12.3984 41.5586 12.1875 42.5312C11.9961 43.4102 11.832 44.125 11.7188 44.6562C11.6055 45.1875 11.5625 45.4297 11.5313 45.5938C11.4492 46.0273 11.4688 46.5234 11.8125 47.0625C12.1563 47.6016 12.9102 48 13.75 48H22.6875C23.7617 48 24.6211 47.25 24.8438 46.25C24.8438 46.25 25.3789 43.8398 25.9063 41.4062C26.168 40.1875 26.418 38.9805 26.625 38.0312C26.832 37.082 27 36.3438 27 36.3438C27.0508 36.1289 27.0938 36.0352 27.0938 36.0312C27.0938 36.0273 26.9961 36 27.2813 36H32.4063C39.7891 36 46 31.5547 47.6563 23.8125C48.5898 19.4336 47.4727 16.1016 45.3438 14C43.4648 12.1445 40.8828 11.2617 38.4063 11.0625C38.1094 8.08984 36.6953 5.76953 34.7813 4.28125C32.7695 2.71875 30.2773 2 27.9063 2H11.4375ZM11.4375 4H27.9063C29.8594 4 31.957 4.625 33.5625 5.875C35.0273 7.01562 36.0117 8.71094 36.3125 11H20.9375C20.6758 11 20.3867 10.9688 19.9375 11.0938C19.4883 11.2188 18.9375 11.7422 18.8125 12.2812L15.5625 26.9062V26.9688L13.3125 37H4.40625C4.25391 37 4.17969 36.9609 4.1875 36.9688C4.19532 36.9766 4.15625 36.8984 4.21875 36.5312C4.22266 36.5039 4.21094 36.5312 4.21875 36.5C5.37891 31.1094 11.2383 4.23828 11.25 4.1875V4.15625C11.2813 4.05469 11.3398 4 11.4375 4ZM20.6875 13C20.7734 12.9961 20.7695 13 20.9375 13H36.4063C36.3633 13.6523 36.2734 14.3438 36.0938 15.1875C35.3516 18.6641 33.8477 21.0391 31.6563 22.625C29.4648 24.2109 26.5195 25 22.9375 25H18.5313C18.3789 25 18.1914 25.043 18 25.0625L20.6875 13ZM38.3125 13.1562C40.3789 13.3398 42.4922 14.0117 43.9375 15.4375C45.5898 17.0703 46.5156 19.5234 45.6875 23.4062C44.207 30.3203 39.0156 34 32.4063 34H27.2813C26.5352 34 25.8828 34.332 25.5313 34.7812C25.1797 35.2305 25.1016 35.707 25.0625 35.875C25.0156 36.0664 24.8945 36.6445 24.6875 37.5938C24.4805 38.543 24.1992 39.7812 23.9375 41C23.4102 43.4336 22.9063 45.8125 22.9063 45.8125C22.8867 45.8945 22.7227 46 22.6875 46H13.75C13.582 46 13.5234 45.9766 13.5 45.9688C13.4844 46.0469 13.5742 45.625 13.6875 45.0938C13.8008 44.5625 13.9648 43.8164 14.1563 42.9375C14.5352 41.1758 15.0313 38.8672 15.5313 36.5625C16.5313 31.9531 17.5313 27.375 17.5313 27.375C17.5781 27.2305 17.6133 27.1953 17.7813 27.125C17.9688 27.0469 18.2891 27 18.5313 27H22.9375C26.8164 27 30.1914 26.1445 32.8125 24.25C35.4336 22.3555 37.2383 19.4453 38.0625 15.5938C38.25 14.7148 38.2617 13.9453 38.3125 13.1562Z" fill="black"/>
</svg>
