<svg width="170" height="170" viewBox="0 0 170 170" fill="none" xmlns="http://www.w3.org/2000/svg">
<path d="M110.881 83.9238C110.237 83.9238 109.644 83.8285 109.104 83.6379C108.563 83.4472 108.044 83.1475 107.544 82.7388C97.7546 74.3478 89.5974 66.3495 83.0725 58.744C76.5476 51.1385 73.2852 44.1618 73.2852 37.814C73.2852 32.5651 75.0969 28.129 78.7203 24.5057C82.3438 20.8822 86.7799 19.0704 92.0288 19.0704C95.3525 19.0704 98.6445 19.9582 101.905 21.7336C105.165 23.5089 108.157 26.2082 110.881 29.8316C113.606 26.2082 116.598 23.5089 119.858 21.7336C123.118 19.9582 126.41 19.0704 129.734 19.0704C134.983 19.0704 139.419 20.8822 143.042 24.5057C146.666 28.129 148.478 32.5651 148.478 37.814C148.478 44.1618 145.215 51.1385 138.69 58.744C132.166 66.3495 124.008 74.3478 114.219 82.7388C113.81 83.1475 113.313 83.4472 112.727 83.6379C112.141 83.8285 111.526 83.9238 110.881 83.9238ZM110.881 75.9551C118.936 69.0715 126.036 62.2402 132.179 55.4611C138.323 48.682 141.394 42.7996 141.394 37.814C141.394 34.4631 140.289 31.682 138.077 29.4707C135.866 27.2594 133.085 26.1538 129.734 26.1538C127.809 26.1538 125.7 26.7055 123.407 27.809C121.114 28.9123 118.664 31.203 116.058 34.681L110.881 41.1651L105.705 34.681C103.099 31.203 100.649 28.9123 98.3562 27.809C96.0632 26.7055 93.9541 26.1538 92.0288 26.1538C88.6779 26.1538 85.8968 27.2594 83.6855 29.4707C81.4742 31.682 80.3686 34.4631 80.3686 37.814C80.3686 42.7996 83.4403 48.682 89.5838 55.4611C95.7272 62.2402 102.826 69.0715 110.881 75.9551ZM95.1347 144.091C95.5887 144.273 95.9973 144.364 96.3606 144.364C96.7239 144.364 97.1325 144.273 97.5866 144.091L138.779 131.396C138.643 129.244 137.991 127.693 136.824 126.744C135.657 125.795 134.365 125.32 132.949 125.32H99.3574C96.3515 125.32 93.6316 125.18 91.1979 124.898C88.7642 124.617 86.2714 124.076 83.7195 123.277L71.5826 119.368C70.6018 119.05 69.9025 118.414 69.4849 117.461C69.0671 116.507 69.0171 115.54 69.335 114.559C69.6528 113.669 70.259 113.009 71.1535 112.577C72.048 112.146 72.9857 112.089 73.9665 112.407L84.9455 116.385C87.2249 117.156 89.7472 117.651 92.5124 117.869C95.2776 118.087 98.7081 118.21 102.804 118.237H104.615C104.615 116.03 104.209 114.246 103.396 112.884C102.583 111.522 101.419 110.573 99.9023 110.037L59.1458 95.0801C58.8734 94.9893 58.6236 94.9212 58.3966 94.8757C58.1696 94.8304 57.9199 94.8077 57.6475 94.8077H42.7725V128.862L95.1347 144.091ZM93.3229 151.093L42.7725 136.3C42.1004 139.097 40.6724 141.326 38.4884 142.988C36.3043 144.65 33.9182 145.481 31.3301 145.481H25.8814C22.712 145.481 20.0126 144.366 17.7832 142.137C15.5538 139.907 14.439 137.208 14.439 134.038V99.1666C14.439 95.9973 15.5538 93.2979 17.7832 91.0685C20.0126 88.839 22.712 87.7242 25.8814 87.7242H57.5112C58.156 87.7242 58.8235 87.7901 59.5136 87.9219C60.2038 88.0535 60.8576 88.2374 61.4752 88.4735L102.409 103.471C104.942 104.434 107.124 106.164 108.954 108.661C110.784 111.158 111.699 114.35 111.699 118.237H132.949C137.217 118.237 140.486 119.572 142.756 122.242C145.027 124.912 146.162 128.299 146.162 132.404C146.162 133.82 145.778 135.017 145.011 135.993C144.244 136.969 143.124 137.703 141.653 138.193L99.9705 151.052C98.9442 151.343 97.859 151.511 96.7148 151.556C95.5706 151.602 94.44 151.447 93.3229 151.093ZM21.5224 134.038C21.5224 135.31 21.931 136.354 22.7483 137.172C23.5657 137.989 24.6101 138.398 25.8814 138.398H31.3301C32.6015 138.398 33.6458 138.057 34.4631 137.376C35.2804 136.695 35.689 135.582 35.689 134.038V94.8077H25.8814C24.6101 94.8077 23.5657 95.2164 22.7483 96.0337C21.931 96.851 21.5224 97.8953 21.5224 99.1666V134.038Z" fill="#F7EBED"/>
</svg>
