<svg width="1452" height="1535" viewBox="0 0 1452 1535" fill="none" xmlns="http://www.w3.org/2000/svg">
<path d="M425.79 1226.21C348.439 1121.8 248.884 1068.02 187.071 968.923C125.102 869.545 101.069 724.885 131.799 596.449C162.529 468.012 247.942 356.308 337.776 282.275C427.764 208.527 521.938 172.672 611.08 137.063C700.027 101.422 783.511 66.2181 875.308 54.2008C966.911 42.1526 1066.79 53.5453 1132.55 118.896C1198.27 184.501 1230.02 304.349 1267.28 424.807C1304.73 545.296 1347.64 666.65 1342.82 791.64C1337.97 916.885 1285.43 1045.51 1210.55 1141.18C1135.86 1236.88 1039.06 1299.39 935.443 1377.23C832.057 1454.85 722.2 1548.1 639.855 1516.83C557.47 1485.82 502.947 1330.6 425.79 1226.21Z" fill="#FFD8E6"/>
</svg>