<svg width="1920" height="345" viewBox="0 0 1920 345" fill="none" xmlns="http://www.w3.org/2000/svg">
<path d="M0 187.733L24.5333 200.96C49.0667 213.973 98.1333 240.427 147.2 252.373C196.267 264.533 245.333 262.4 294.827 283.733C344.107 305.067 394.027 349.867 443.307 329.173C492.8 308.693 541.867 222.507 590.933 200.533C640 178.56 689.067 220.373 738.133 211.2C787.2 202.027 836.267 141.44 885.76 125.867C935.04 110.293 984.96 139.307 1034.24 190.933C1083.73 242.56 1132.8 316.373 1181.87 337.707C1230.93 359.04 1280 327.893 1329.07 286.293C1378.13 244.693 1427.2 192.64 1476.69 156.8C1525.97 120.96 1575.89 100.907 1625.17 106.027C1674.67 110.933 1723.73 140.8 1772.8 164.693C1821.87 188.373 1870.93 206.293 1895.47 215.04L1920 224V0H1895.47C1870.93 0 1821.87 0 1772.8 0C1723.73 0 1674.67 0 1625.17 0C1575.89 0 1525.97 0 1476.69 0C1427.2 0 1378.13 0 1329.07 0C1280 0 1230.93 0 1181.87 0C1132.8 0 1083.73 0 1034.24 0C984.96 0 935.04 0 885.76 0C836.267 0 787.2 0 738.133 0C689.067 0 640 0 590.933 0C541.867 0 492.8 0 443.307 0C394.027 0 344.107 0 294.827 0C245.333 0 196.267 0 147.2 0C98.1333 0 49.0667 0 24.5333 0H0V187.733Z" fill="#F1DEE3"/>
</svg>
